<?xml version="1.0" encoding="UTF-8" standalone="no"?>
<svg
   xmlns:dc="http://purl.org/dc/elements/1.1/"
   xmlns:cc="http://creativecommons.org/ns#"
   xmlns:rdf="http://www.w3.org/1999/02/22-rdf-syntax-ns#"
   xmlns:svg="http://www.w3.org/2000/svg"
   xmlns="http://www.w3.org/2000/svg"
   xmlns:sodipodi="http://sodipodi.sourceforge.net/DTD/sodipodi-0.dtd"
   xmlns:inkscape="http://www.inkscape.org/namespaces/inkscape"
   preserveAspectRatio="xMidYMax slice"
   viewBox="0 0 1000 250"
   version="1.1"
   id="svg973"
   sodipodi:docname="drawing.svg"
   inkscape:version="1.0 (4035a4f, 2020-05-01)">
  <metadata
     id="metadata979">
    <rdf:RDF>
      <cc:Work
         rdf:about="">
        <dc:format>image/svg+xml</dc:format>
        <dc:type
           rdf:resource="http://purl.org/dc/dcmitype/StillImage" />
      </cc:Work>
    </rdf:RDF>
  </metadata>
  <defs
     id="defs977" />
  <sodipodi:namedview
     inkscape:document-rotation="0"
     pagecolor="#ffffff"
     bordercolor="#666666"
     borderopacity="1"
     objecttolerance="10"
     gridtolerance="10"
     guidetolerance="10"
     inkscape:pageopacity="0"
     inkscape:pageshadow="2"
     inkscape:window-width="2159"
     inkscape:window-height="1544"
     id="namedview975"
     showgrid="false"
     inkscape:zoom="0.83577764"
     inkscape:cx="758.32725"
     inkscape:cy="119.5992"
     inkscape:window-x="1680"
     inkscape:window-y="0"
     inkscape:window-maximized="0"
     inkscape:current-layer="svg973" />
  <g
     transform="translate(0,-500)"
     style="fill:#483737;stroke:none;stroke-width:0;stroke-miterlimit:4;stroke-dasharray:none"
     id="g1633">
    <path
       style="fill:#483737;fill-opacity:1;stroke:none;stroke-width:0;stroke-linejoin:bevel;stroke-miterlimit:4;stroke-dasharray:none"
       id="path2729"
       stroke="var(--theme-color)"
       fill="var(--theme-color)"
       d="M 90.1,0 H 0 v 56 z" />
    <path
       style="fill:#483737;fill-opacity:1;stroke:none;stroke-width:0;stroke-linejoin:bevel;stroke-miterlimit:4;stroke-dasharray:none"
       id="path2733"
       stroke="var(--theme-color-lighter-1)"
       fill="var(--theme-color-lighter-1)"
       d="M 1000,66 H 874.9 l 28.83578,65.87372 z" />
    <path
       style="fill:#483737;fill-opacity:1;stroke:none;stroke-width:0;stroke-linejoin:bevel;stroke-miterlimit:4;stroke-dasharray:none"
       id="path2637"
       stroke="var(--theme-color-lighter-4)"
       fill="var(--theme-color-lighter-4)"
       d="M 536.6,43 525.6,0 H 452.4 Z" />
    <path
       style="fill:#483737;fill-opacity:1;stroke:none;stroke-width:0;stroke-linejoin:bevel;stroke-miterlimit:4;stroke-dasharray:none"
       id="path2639"
       stroke="var(--theme-color-lighter-2)"
       fill="var(--theme-color-lighter-2)"
       d="m 452.4,0 -43,41 127.2,2 z" />
    <path
       style="fill:#483737;fill-opacity:1;stroke:none;stroke-width:0;stroke-linejoin:bevel;stroke-miterlimit:4;stroke-dasharray:none"
       id="path2641"
       stroke="var(--theme-color)"
       fill="var(--theme-color)"
       d="M 536.6,43 634.7,0 H 525.6 Z" />
    <path
       style="fill:#483737;fill-opacity:1;stroke:none;stroke-width:0;stroke-linejoin:bevel;stroke-miterlimit:4;stroke-dasharray:none"
       id="path2643"
       stroke="var(--theme-color-lighter-7)"
       fill="var(--theme-color-lighter-7)"
       d="M 409.4,41 438.27898,186.75733 536.6,43 Z" />
    <path
       style="fill:#483737;fill-opacity:1;stroke:none;stroke-width:0;stroke-linejoin:bevel;stroke-miterlimit:4;stroke-dasharray:none"
       id="path2645"
       stroke="var(--theme-color-lighter-2)"
       fill="var(--theme-color-lighter-2)"
       d="M 536.6,43 648.7,94 634.7,0 Z" />
    <path
       style="fill:#483737;fill-opacity:1;stroke:none;stroke-width:0;stroke-linejoin:bevel;stroke-miterlimit:4;stroke-dasharray:none"
       id="path2647"
       stroke="var(--theme-color-lighter-2)"
       fill="var(--theme-color-lighter-2)"
       d="M 438.27898,186.75733 588.57953,169.24855 536.6,43 Z" />
    <path
       style="fill:#483737;fill-opacity:1;stroke:none;stroke-width:0;stroke-linejoin:bevel;stroke-miterlimit:4;stroke-dasharray:none"
       id="path2649"
       stroke="var(--theme-color-lighter-8)"
       fill="var(--theme-color-lighter-8)"
       d="M 588.57953,169.24855 648.7,94 536.6,43 Z" />
    <path
       style="fill:#483737;fill-opacity:1;stroke:none;stroke-width:0;stroke-linejoin:bevel;stroke-miterlimit:4;stroke-dasharray:none"
       id="path2651"
       stroke="var(--theme-color-lighter-1)"
       fill="var(--theme-color-lighter-1)"
       d="M 452.4,0 H 318.3 l 91.1,41 z" />
    <path
       style="fill:#483737;fill-opacity:1;stroke:none;stroke-width:0;stroke-linejoin:bevel;stroke-miterlimit:4;stroke-dasharray:none"
       id="path2653"
       stroke="var(--theme-color-lighter-3)"
       fill="var(--theme-color-lighter-3)"
       d="m 409.4,41 -71.1,80 99.97898,65.75733 z" />
    <path
       style="fill:#483737;fill-opacity:1;stroke:none;stroke-width:0;stroke-linejoin:bevel;stroke-miterlimit:4;stroke-dasharray:none"
       id="path2655"
       stroke="var(--theme-color-lighter-1)"
       fill="var(--theme-color-lighter-1)"
       d="m 318.3,0 20,121 71.1,-80 z" />
    <path
       sodipodi:nodetypes="cccc"
       style="fill:#483737;fill-opacity:1;stroke:none;stroke-width:0;stroke-linejoin:bevel;stroke-miterlimit:4;stroke-dasharray:none"
       id="path2663"
       stroke="var(--theme-color-lighter-8)"
       fill="var(--theme-color-lighter-8)"
       d="M 588.57953,169.24855 678.565,158.58124 648.7,94 Z" />
    <path
       style="fill:#483737;fill-opacity:1;stroke:none;stroke-width:0;stroke-linejoin:bevel;stroke-miterlimit:4;stroke-dasharray:none"
       id="path2667"
       stroke="var(--theme-color-lighter-9)"
       fill="var(--theme-color-lighter-9)"
       d="M 648.7,94 747.8,0 H 634.7 Z" />
    <path
       style="fill:#483737;fill-opacity:1;stroke:none;stroke-width:0;stroke-linejoin:bevel;stroke-miterlimit:4;stroke-dasharray:none"
       id="path2671"
       stroke="var(--theme-color-lighter-8)"
       fill="var(--theme-color-lighter-8)"
       d="m 338.3,121 -45.25474,83.57454 145.23372,-17.81721 z" />
    <path
       style="fill:#483737;fill-opacity:1;stroke:none;stroke-width:0;stroke-linejoin:bevel;stroke-miterlimit:4;stroke-dasharray:none"
       id="path2673"
       stroke="var(--theme-color-lighter-6)"
       fill="var(--theme-color-lighter-6)"
       d="M 818.8,73 747.8,0 648.7,94 Z" />
    <path
       style="fill:#483737;fill-opacity:1;stroke:none;stroke-width:0;stroke-linejoin:bevel;stroke-miterlimit:4;stroke-dasharray:none"
       id="path2675"
       stroke="var(--theme-color-lighter-4)"
       fill="var(--theme-color-lighter-4)"
       d="m 318.3,0 -91.1,51 111.1,70 z" />
    <path
       style="fill:#483737;fill-opacity:1;stroke:none;stroke-width:0;stroke-linejoin:bevel;stroke-miterlimit:4;stroke-dasharray:none"
       id="path2679"
       stroke="var(--theme-color-lighter-3)"
       fill="var(--theme-color-lighter-3)"
       d="M 678.565,158.58124 818.8,73 648.7,94 Z" />
    <path
       style="fill:#483737;fill-opacity:1;stroke:none;stroke-width:0;stroke-linejoin:bevel;stroke-miterlimit:4;stroke-dasharray:none"
       id="path2685"
       stroke="var(--theme-color-lighter-2)"
       fill="var(--theme-color-lighter-2)"
       d="M 227.2,51 293.04526,204.57454 338.3,121 Z" />
    <path
       style="fill:#483737;fill-opacity:1;stroke:none;stroke-width:0;stroke-linejoin:bevel;stroke-miterlimit:4;stroke-dasharray:none"
       id="path2687"
       stroke="var(--theme-color-lighter-4)"
       fill="var(--theme-color-lighter-4)"
       d="M 318.3,0 H 191.2 l 36,51 z" />
    <path
       style="fill:#483737;fill-opacity:1;stroke:none;stroke-width:0;stroke-linejoin:bevel;stroke-miterlimit:4;stroke-dasharray:none"
       id="path2689"
       stroke="var(--theme-color)"
       fill="var(--theme-color)"
       d="m 133.1,148 66.1196,67.87281 93.82566,-11.29827 z" />
    <path
       style="fill:#483737;fill-opacity:1;stroke:none;stroke-width:0;stroke-linejoin:bevel;stroke-miterlimit:4;stroke-dasharray:none"
       id="path2693"
       stroke="var(--theme-color-lighter-7)"
       fill="var(--theme-color-lighter-7)"
       d="M 791.77832,144.46396 818.8,73 678.20203,158.52059 Z" />
    <path
       style="fill:#483737;fill-opacity:1;stroke:none;stroke-width:0;stroke-linejoin:bevel;stroke-miterlimit:4;stroke-dasharray:none"
       id="path2695"
       stroke="var(--theme-color)"
       fill="var(--theme-color)"
       d="M 152.1,98 293.04526,204.57454 227.2,51 Z" />
    <path
       style="fill:#483737;fill-opacity:1;stroke:none;stroke-width:0;stroke-linejoin:bevel;stroke-miterlimit:4;stroke-dasharray:none"
       id="path2701"
       stroke="var(--theme-color-lighter-9)"
       fill="var(--theme-color-lighter-9)"
       d="M 903.73578,131.87372 874.9,66 818.8,73 Z" />
    <path
       style="fill:#483737;fill-opacity:1;stroke:none;stroke-width:0;stroke-linejoin:bevel;stroke-miterlimit:4;stroke-dasharray:none"
       id="path2703"
       stroke="var(--theme-color-lighter-8)"
       fill="var(--theme-color-lighter-8)"
       d="M 191.2,0 152.1,98 227.2,51 Z" />
    <path
       style="fill:#483737;fill-opacity:1;stroke:none;stroke-width:0;stroke-linejoin:bevel;stroke-miterlimit:4;stroke-dasharray:none"
       id="path2705"
       stroke="var(--theme-color-lighter-8)"
       fill="var(--theme-color-lighter-8)"
       d="m 152.1,98 -19,50 159.94526,56.57454 z" />
    <path
       style="fill:#483737;fill-opacity:1;stroke:none;stroke-width:0;stroke-linejoin:bevel;stroke-miterlimit:4;stroke-dasharray:none"
       id="path2707"
       stroke="var(--theme-color-lighter-9)"
       fill="var(--theme-color-lighter-9)"
       d="M 903.73578,131.87372 818.8,73 791.77832,144.46396 Z" />
    <path
       style="fill:#483737;fill-opacity:1;stroke:none;stroke-width:0;stroke-linejoin:bevel;stroke-miterlimit:4;stroke-dasharray:none"
       id="path2709"
       stroke="var(--theme-color-lighter-1)"
       fill="var(--theme-color-lighter-1)"
       d="M 818.8,73 911.9,0 H 747.8 Z" />
    <path
       style="fill:#483737;fill-opacity:1;stroke:none;stroke-width:0;stroke-linejoin:bevel;stroke-miterlimit:4;stroke-dasharray:none"
       id="path2711"
       stroke="var(--theme-color-lighter-6)"
       fill="var(--theme-color-lighter-6)"
       d="M 191.2,0 H 90.1 l 62,98 z" />
    <path
       style="fill:#483737;fill-opacity:1;stroke:none;stroke-width:0;stroke-linejoin:bevel;stroke-miterlimit:4;stroke-dasharray:none"
       id="path2713"
       stroke="var(--theme-color-lighter-8)"
       fill="var(--theme-color-lighter-8)"
       d="M 152.1,98 0,119 133.1,148 Z" />
    <path
       style="fill:#483737;fill-opacity:1;stroke:none;stroke-width:0;stroke-linejoin:bevel;stroke-miterlimit:4;stroke-dasharray:none"
       id="path2715"
       stroke="var(--theme-color)"
       fill="var(--theme-color)"
       d="m 874.9,66 37,-66 -93.1,73 z" />
    <path
       style="fill:#483737;fill-opacity:1;stroke:none;stroke-width:0;stroke-linejoin:bevel;stroke-miterlimit:4;stroke-dasharray:none"
       id="path2719"
       stroke="var(--theme-color)"
       fill="var(--theme-color)"
       d="M 1000,66 V 0 h -88.1 z" />
    <path
       style="fill:#483737;fill-opacity:1;stroke:none;stroke-width:0;stroke-linejoin:bevel;stroke-miterlimit:4;stroke-dasharray:none"
       id="path2721"
       stroke="var(--theme-color-lighter-4)"
       fill="var(--theme-color-lighter-4)"
       d="M 0,119 82.421442,229.58573 133.1,148 Z" />
    <path
       style="fill:#483737;fill-opacity:1;stroke:none;stroke-width:0;stroke-linejoin:bevel;stroke-miterlimit:4;stroke-dasharray:none"
       id="path2723"
       stroke="var(--theme-color-lighter-2)"
       fill="var(--theme-color-lighter-2)"
       d="M 133.1,148 82.421442,229.58573 199.2196,215.87281 Z" />
    <path
       style="fill:#483737;fill-opacity:1;stroke:none;stroke-width:0;stroke-linejoin:bevel;stroke-miterlimit:4;stroke-dasharray:none"
       id="path2727"
       stroke="var(--theme-color-lighter-2)"
       fill="var(--theme-color-lighter-2)"
       d="M 90.1,0 0,56 152.1,98 Z" />
    <path
       style="fill:#483737;fill-opacity:1;stroke:none;stroke-width:0;stroke-linejoin:bevel;stroke-miterlimit:4;stroke-dasharray:none"
       id="path2731"
       stroke="var(--theme-color-lighter-7)"
       fill="var(--theme-color-lighter-7)"
       d="m 0,56 v 63 L 152.1,98 Z" />
    <path
       style="fill:#483737;fill-opacity:1;stroke:none;stroke-width:0;stroke-linejoin:bevel;stroke-miterlimit:4;stroke-dasharray:none"
       id="path2735"
       stroke="var(--theme-color-lighter-8)"
       fill="var(--theme-color-lighter-8)"
       d="M 1000,66 911.9,0 874.9,66 Z" />
    <path
       style="fill:#483737;fill-opacity:1;stroke:none;stroke-width:0;stroke-linejoin:bevel;stroke-miterlimit:4;stroke-dasharray:none"
       id="path2737"
       stroke="var(--theme-color-lighter-5)"
       fill="var(--theme-color-lighter-5)"
       d="M 1000,120 V 66 l -96.26422,65.87372 z" />
    <path
       style="fill:#483737;fill-opacity:1;stroke:none;stroke-width:0;stroke-linejoin:bevel;stroke-miterlimit:4;stroke-dasharray:none"
       id="path2741"
       stroke="var(--theme-color-lighter-7)"
       fill="var(--theme-color-lighter-7)"
       d="M 0,119 V 240 L 82.421442,229.58573 Z" />
  </g>
  <path
     id="path2486"
     d="M 0,0 V 240.00024 L 1000,119.78635 V 0 Z"
     style="fill:#800000;fill-opacity:1;stroke:none;stroke-width:0;stroke-linecap:butt;stroke-linejoin:miter;stroke-miterlimit:4;stroke-dasharray:none;stroke-opacity:1" />
  <g
     transform="translate(0.29674362,-250)"
     id="g2505">
    <path
       style="fill:#55d400;stroke:none;stroke-width:0;stroke-miterlimit:4;stroke-dasharray:none;stroke-opacity:1"
       d="M 0,0 625.71191,1e-6 C 596.33373,14.517189 567.43983,33.103492 536.59461,34.296475 505.64795,35.501664 472.64853,18.717796 441.70188,19.922986 410.85666,21.115968 381.96276,40.310216 350.71526,39.939578 319.45531,39.469687 285.62642,19.360073 254.74032,21.867748 223.8667,24.474675 195.72052,49.624053 165.44507,56.995084 135.16962,64.366116 102.53709,53.784711 71.326989,53.711829 54.22956,50.424105 -1.7486089,68.205854 0,67.728393 Z"
       fill="var(--theme-color-lighter-2)"
       stroke="var(--theme-color-lighter-2)"
       id="path991"
       sodipodi:nodetypes="ccccccsccc" />
    <path
       style="fill:#44aa00;stroke:none;stroke-width:0;stroke-miterlimit:4;stroke-dasharray:none;stroke-opacity:1"
       d="m 0,67.728393 c -5.2403369,-5.394731 60.523055,-15.899271 71.077744,-16.001608 31.210096,0.07288 63.842626,10.654287 94.118076,3.283256 30.27545,-7.371032 58.42163,-32.52041 89.29526,-35.127337 30.8861,-2.507674 64.71498,17.60194 95.97494,18.07183 31.24749,0.370638 60.14139,-18.823609 90.98661,-20.016592 30.94666,-1.20519 63.94608,15.578679 94.89273,14.373489 C 567.19058,31.118448 591.08336,14.517189 620.46154,0 l 99.59828,1e-6 C 690.25793,11.142616 660.05,24.377234 630.55966,38.001153 601.06933,51.625071 571.67694,66.849232 540.83172,68.042214 509.88506,69.247404 477.38413,56.433623 446.12591,55.157508 414.96914,53.869187 384.95366,64.130738 353.55661,62.569074 322.15958,61.00741 289.15318,47.448439 258.7905,54.124705 228.42782,60.800971 200.50596,87.736892 169.8068,91.733342 139.10763,95.729802 105.45322,77.009722 74.130962,76.043572 41.00194,76.397142 27.71123,83.932162 0,100.09324 Z"
       fill="var(--theme-color-lighter-3)"
       stroke="var(--theme-color-lighter-3)"
       id="path989"
       sodipodi:nodetypes="ccsccccccsccsssccc" />
    <path
       style="fill:#338000;stroke:none;stroke-width:0;stroke-miterlimit:4;stroke-dasharray:none;stroke-opacity:1"
       d="m 0,97.565002 c 29.323887,-16.17124 46.609436,-23.7806 73.881717,-23.50648 31.322253,0.96615 64.976683,19.68624 95.675833,15.68978 30.69917,-3.99646 58.62103,-30.932374 88.98371,-37.608641 30.36269,-6.676266 63.36908,6.882705 94.76612,8.444369 31.39703,1.561665 61.41253,-8.699887 92.5693,-7.411565 31.25821,1.276114 63.75914,14.089896 94.7058,12.884706 30.84522,-1.192983 60.2376,-16.417143 89.72794,-30.041062 C 659.80076,22.392191 689.59192,11.142616 719.39382,1e-6 L 971.69305,0 c -16.1962,5.569373 -39.30756,12.434234 -63.00378,14.204432 -30.89855,2.408422 -62.98275,-3.805887 -93.6196,0.686831 -30.62438,4.591971 -60.01678,19.816131 -89.6442,32.348276 -29.63988,12.432892 -59.73014,22.098931 -89.88098,30.462483 -30.16328,8.2643 -60.57756,15.34978 -91.69695,14.35922 -31.22082,-0.97836 -63.22327,-9.82205 -94.38178,-10.30415 -31.05707,-0.49431 -61.34673,7.5837 -92.54438,7.61007 -31.19764,0.0264 -63.48123,-7.77598 -93.76915,-0.5042 -30.27545,7.37104 -58.74563,29.939858 -89.85605,30.660988 -31.1104,0.72114 -65.06391,-20.380998 -95.950005,-17.87332 C 47.159039,107.1204 21.119803,126.45713 0,147.87331 Z"
       fill="var(--theme-color-lighter-4)"
       stroke="var(--theme-color-lighter-4)"
       id="path987"
       sodipodi:nodetypes="ccsssccsccccccccscsccc" />
    <path
       style="fill:#225500;stroke:none;stroke-width:0;stroke-miterlimit:4;stroke-dasharray:none;stroke-opacity:1"
       d="m 0,145.20605 c 26.109634,-19.26769 50.534813,-42.55281 77.09694,-45.540468 30.88608,-2.50767 64.83959,18.594468 95.95001,17.873328 31.1104,-0.72113 59.5806,-23.289958 89.85605,-30.660988 30.28791,-7.27178 62.57149,0.53057 93.76914,0.5042 31.19765,-0.0264 61.4873,-8.10438 92.54437,-7.61007 31.15852,0.48209 63.16097,9.32579 94.3818,10.30414 31.11938,0.99057 61.53365,-6.09491 91.69695,-14.35921 30.15083,-8.363556 60.24109,-18.029594 89.88098,-30.462487 29.62742,-12.532144 59.0198,-27.756305 89.64418,-32.348275 30.63686,-4.492719 62.72105,1.721591 93.61961,-0.686832 C 939.35105,9.910217 956.14853,5.416326 971.01745,1e-6 L 1000,0 v 25.433032 l -10.99155,6.812892 c -14.20843,10.676691 -42.85309,31.855982 -73.10362,39.425521 -30.263,7.470287 -62.34719,1.255971 -93.60715,0.78608 -31.24749,-0.370638 -61.88609,4.928307 -91.63813,16.467927 -29.7645,11.440378 -58.8578,29.046588 -89.18309,36.020608 -30.31284,7.07328 -62.07302,3.43952 -93.36688,1.05943 -31.40776,-2.46714 -62.46309,-3.76767 -93.06081,0.21658 -30.48381,4.07129 -60.62393,13.34032 -91.93373,12.47342 -31.32226,-0.96615 -64.02956,-12.14307 -94.60411,-7.15409 -30.56207,5.08823 -59.20673,26.26753 -90.19252,27.98118 -30.9858,1.71366 -64.51559,-16.0139 -94.940582,-9.8339 -30.424998,6.18001 -57.948071,36.292 -71.595665,51.43504 L 0,215.04268 Z"
       fill="var(--theme-color-lighter-5)"
       stroke="var(--theme-color-lighter-5)"
       id="path985"
       sodipodi:nodetypes="ccscsccccccccccccccccccssccc" />
    <path
       style="fill:#112b00;stroke:none;stroke-width:0;stroke-miterlimit:4;stroke-dasharray:none;stroke-opacity:1"
       d="m 0,213.85356 11.532918,-14.71489 c 13.647594,-15.14304 41.170677,-45.25503 71.595675,-51.43503 30.424987,-6.18001 63.954787,11.54756 94.940567,9.8339 30.9858,-1.71366 59.63045,-22.89295 90.19253,-27.98118 30.57454,-4.98898 63.28185,6.18794 94.60411,7.15409 31.30981,0.8669 61.44992,-8.40213 91.93374,-12.47343 30.59772,-3.98425 61.65305,-2.68372 93.0608,-0.21658 31.29385,2.3801 63.05403,6.01385 93.36687,-1.05942 30.3253,-6.97403 59.4186,-24.580238 89.1831,-36.020608 29.75204,-11.53963 60.39064,-16.838568 91.63813,-16.46793 31.25996,0.46989 63.34416,6.6842 93.60714,-0.786081 C 948.02834,63.113414 971.28589,37.765552 1000,25.433032 v 94.353318 l -76.89209,9.25285 -92.31108,11.10831 -92.31108,11.10831 -92.31108,11.10831 -92.10821,11.0839 -91.70244,11.03507 -92.1082,11.08389 -92.31108,11.10831 -92.31108,11.10831 -92.31108,11.10831 -76.8921,9.25286 L 0,240.00024 Z"
       fill="var(--theme-color-lighter-6)"
       stroke="var(--theme-color-lighter-6)"
       id="path983"
       sodipodi:nodetypes="ccssccccccccccccccccccccccc" />
  </g>
  <path
     sodipodi:nodetypes="ccssccccc"
     style="stroke:none;stroke-width:0;stroke-miterlimit:4;stroke-dasharray:none"
     inkscape:transform-center-y="-95.451292"
     inkscape:transform-center-x="-492.04801"
     d="m 1000,-630 c -32.95807,6.9228 -139.54218,26.63045 -205.13987,44.13761 -65.60358,17.40799 -130.88284,38.57664 -197.67532,36.06169 -66.79259,-2.51499 -134.89922,-28.72523 -201.33684,-25.29305 -66.43761,3.43222 -131.0071,36.49518 -196.72895,51.92078 C 133.70202,-507.6218 66.538742,-511.35871 0,-510 v -240 h 1000 z"
     fill="#0066ff"
     stroke-linecap="round"
     stroke-linejoin="miter"
     id="path3278" />
</svg>
